<svg xmlns="http://www.w3.org/2000/svg" xmlns:xlink="http://www.w3.org/1999/xlink" width="500" zoomAndPan="magnify" viewBox="0 0 375 374.999991" height="500" preserveAspectRatio="xMidYMid meet" version="1.0"><defs><clipPath id="b056b82b55"><path d="M 127.152344 164 L 171 164 L 171 227.542969 L 127.152344 227.542969 Z M 127.152344 164 " clip-rule="nonzero"/></clipPath><clipPath id="2c203707fe"><path d="M 153 147.292969 L 185 147.292969 L 185 224 L 153 224 Z M 153 147.292969 " clip-rule="nonzero"/></clipPath><clipPath id="8a2c4ca07e"><path d="M 204 164 L 247.902344 164 L 247.902344 227.542969 L 204 227.542969 Z M 204 164 " clip-rule="nonzero"/></clipPath><clipPath id="2397ea5101"><path d="M 190 147.292969 L 222 147.292969 L 222 224 L 190 224 Z M 190 147.292969 " clip-rule="nonzero"/></clipPath></defs><path fill="#ffffff" d="M 175.519531 225 L 140.410156 213.433594 L 140.042969 154.742188 L 148.632812 158.703125 L 148.554688 209.976562 Z M 175.519531 225 " fill-opacity="1" fill-rule="nonzero"/><g clip-path="url(#b056b82b55)"><path fill="#ffffff" d="M 170.167969 227.691406 L 127.484375 227.691406 L 127.15625 164.511719 L 135.40625 165.894531 L 135.140625 219.980469 Z M 170.167969 227.691406 " fill-opacity="1" fill-rule="nonzero"/></g><path fill="#ffffff" d="M 165.078125 200.367188 C 165.257812 200.414062 165.449219 200.464844 165.65625 200.519531 C 166.066406 200.636719 166.53125 200.765625 167.039062 200.90625 C 169.070312 201.484375 171.785156 202.285156 174.496094 203.09375 C 179.914062 204.734375 185.328125 206.371094 185.328125 206.371094 C 185.328125 206.371094 180.101562 204.199219 174.875 202.03125 C 172.257812 200.953125 169.636719 199.886719 167.65625 199.105469 C 167.15625 198.910156 166.699219 198.734375 166.296875 198.574219 C 166.09375 198.496094 165.902344 198.425781 165.722656 198.359375 C 165.636719 198.328125 165.550781 198.292969 165.46875 198.261719 C 165.371094 198.230469 165.277344 198.195312 165.1875 198.164062 C 165.125 198.144531 165.066406 198.125 165.007812 198.105469 L 165.007812 200.34375 C 165.035156 200.351562 165.054688 200.359375 165.078125 200.367188 Z M 165.078125 200.367188 " fill-opacity="1" fill-rule="nonzero"/><path fill="#ffffff" d="M 165.078125 192.917969 C 165.257812 192.960938 165.449219 193.015625 165.65625 193.070312 C 166.066406 193.1875 166.53125 193.316406 167.039062 193.457031 C 169.070312 194.035156 171.785156 194.835938 174.496094 195.644531 C 179.914062 197.28125 185.328125 198.917969 185.328125 198.917969 C 185.328125 198.917969 180.101562 196.75 174.875 194.578125 C 172.257812 193.503906 169.636719 192.4375 167.65625 191.65625 C 167.15625 191.460938 166.699219 191.285156 166.296875 191.125 C 166.09375 191.046875 165.902344 190.972656 165.722656 190.910156 C 165.636719 190.875 165.550781 190.839844 165.46875 190.8125 C 165.371094 190.777344 165.277344 190.742188 165.1875 190.714844 C 165.125 190.691406 165.066406 190.671875 165.007812 190.65625 L 165.007812 192.894531 C 165.035156 192.90625 165.054688 192.910156 165.078125 192.917969 Z M 165.078125 192.917969 " fill-opacity="1" fill-rule="nonzero"/><path fill="#ffffff" d="M 164.699219 183.953125 C 164.878906 184.003906 165.070312 184.054688 165.277344 184.109375 C 165.6875 184.226562 166.152344 184.355469 166.660156 184.496094 C 168.695312 185.074219 171.40625 185.875 174.117188 186.683594 C 179.535156 188.324219 184.949219 189.960938 184.949219 189.960938 C 184.949219 189.960938 179.722656 187.789062 174.496094 185.621094 C 171.878906 184.542969 169.257812 183.476562 167.277344 182.695312 C 166.777344 182.5 166.320312 182.324219 165.917969 182.164062 C 165.714844 182.085938 165.523438 182.011719 165.34375 181.949219 C 165.257812 181.917969 165.171875 181.882812 165.089844 181.851562 C 164.992188 181.820312 164.898438 181.785156 164.808594 181.753906 C 164.746094 181.730469 164.691406 181.714844 164.628906 181.695312 L 164.628906 183.933594 C 164.65625 183.941406 164.675781 183.945312 164.699219 183.953125 Z M 164.699219 183.953125 " fill-opacity="1" fill-rule="nonzero"/><path fill="#ffffff" d="M 165.078125 175.441406 C 165.257812 175.492188 165.449219 175.542969 165.65625 175.597656 C 166.066406 175.714844 166.53125 175.84375 167.039062 175.984375 C 169.070312 176.558594 171.785156 177.359375 174.496094 178.167969 C 179.914062 179.808594 185.328125 181.445312 185.328125 181.445312 C 185.328125 181.445312 180.101562 179.277344 174.875 177.109375 C 172.257812 176.03125 169.636719 174.964844 167.65625 174.183594 C 167.15625 173.988281 166.699219 173.8125 166.296875 173.652344 C 166.09375 173.574219 165.902344 173.503906 165.722656 173.4375 C 165.636719 173.402344 165.550781 173.371094 165.46875 173.339844 C 165.371094 173.304688 165.277344 173.273438 165.1875 173.242188 C 165.125 173.222656 165.066406 173.203125 165.007812 173.183594 L 165.007812 175.421875 C 165.035156 175.429688 165.054688 175.4375 165.078125 175.441406 Z M 165.078125 175.441406 " fill-opacity="1" fill-rule="nonzero"/><path fill="#ffffff" d="M 165.078125 166.769531 C 165.257812 166.816406 165.449219 166.871094 165.65625 166.925781 C 166.066406 167.039062 166.53125 167.167969 167.039062 167.3125 C 169.070312 167.890625 171.785156 168.691406 174.496094 169.5 C 179.914062 171.136719 185.328125 172.773438 185.328125 172.773438 C 185.328125 172.773438 180.101562 170.605469 174.875 168.4375 C 172.257812 167.363281 169.636719 166.292969 167.65625 165.511719 C 167.15625 165.316406 166.699219 165.136719 166.296875 164.980469 C 166.09375 164.902344 165.902344 164.828125 165.722656 164.765625 C 165.636719 164.730469 165.550781 164.699219 165.46875 164.667969 C 165.371094 164.632812 165.277344 164.601562 165.1875 164.570312 C 165.125 164.546875 165.066406 164.527344 165.007812 164.511719 L 165.007812 166.75 C 165.035156 166.753906 165.054688 166.761719 165.078125 166.769531 Z M 165.078125 166.769531 " fill-opacity="1" fill-rule="nonzero"/><g clip-path="url(#2c203707fe)"><path fill="#ffffff" d="M 161.851562 156.550781 L 184.894531 161.675781 L 153.269531 147.292969 L 153.636719 205.984375 L 181.871094 223.425781 L 161.78125 202.527344 Z M 161.851562 156.550781 " fill-opacity="1" fill-rule="nonzero"/></g><path fill="#33b5ff" d="M 199.488281 225 L 234.597656 213.433594 L 234.964844 154.742188 L 226.375 158.703125 L 226.453125 209.976562 Z M 199.488281 225 " fill-opacity="1" fill-rule="nonzero"/><g clip-path="url(#8a2c4ca07e)"><path fill="#33b5ff" d="M 204.84375 227.691406 L 247.523438 227.691406 L 247.851562 164.511719 L 239.601562 165.894531 L 239.863281 219.980469 Z M 204.84375 227.691406 " fill-opacity="1" fill-rule="nonzero"/></g><path fill="#33b5ff" d="M 209.929688 200.367188 C 209.75 200.414062 209.558594 200.464844 209.351562 200.519531 C 208.941406 200.636719 208.476562 200.765625 207.964844 200.90625 C 205.933594 201.484375 203.222656 202.285156 200.511719 203.09375 C 195.09375 204.734375 189.679688 206.371094 189.679688 206.371094 C 189.679688 206.371094 194.90625 204.199219 200.132812 202.03125 C 202.75 200.953125 205.371094 199.886719 207.351562 199.105469 C 207.851562 198.910156 208.308594 198.734375 208.710938 198.574219 C 208.914062 198.496094 209.105469 198.425781 209.285156 198.359375 C 209.371094 198.328125 209.457031 198.292969 209.539062 198.261719 C 209.636719 198.230469 209.730469 198.195312 209.820312 198.164062 C 209.882812 198.144531 209.9375 198.125 210 198.105469 L 210 200.34375 C 209.972656 200.351562 209.953125 200.359375 209.929688 200.367188 Z M 209.929688 200.367188 " fill-opacity="1" fill-rule="nonzero"/><path fill="#33b5ff" d="M 209.929688 192.917969 C 209.75 192.960938 209.558594 193.015625 209.351562 193.070312 C 208.941406 193.1875 208.476562 193.316406 207.964844 193.457031 C 205.933594 194.035156 203.222656 194.835938 200.511719 195.644531 C 195.09375 197.28125 189.679688 198.917969 189.679688 198.917969 C 189.679688 198.917969 194.90625 196.75 200.132812 194.578125 C 202.75 193.503906 205.371094 192.4375 207.351562 191.65625 C 207.851562 191.460938 208.308594 191.285156 208.710938 191.125 C 208.914062 191.046875 209.105469 190.972656 209.285156 190.910156 C 209.371094 190.875 209.457031 190.839844 209.539062 190.8125 C 209.636719 190.777344 209.730469 190.742188 209.820312 190.714844 C 209.882812 190.691406 209.9375 190.671875 210 190.65625 L 210 192.894531 C 209.972656 192.90625 209.953125 192.910156 209.929688 192.917969 Z M 209.929688 192.917969 " fill-opacity="1" fill-rule="nonzero"/><path fill="#33b5ff" d="M 210.308594 183.953125 C 210.128906 184.003906 209.9375 184.054688 209.730469 184.109375 C 209.320312 184.226562 208.855469 184.355469 208.34375 184.496094 C 206.3125 185.074219 203.601562 185.875 200.890625 186.683594 C 195.472656 188.324219 190.058594 189.960938 190.058594 189.960938 C 190.058594 189.960938 195.285156 187.789062 200.511719 185.621094 C 203.128906 184.542969 205.75 183.476562 207.730469 182.695312 C 208.230469 182.5 208.6875 182.324219 209.089844 182.164062 C 209.292969 182.085938 209.484375 182.011719 209.664062 181.949219 C 209.75 181.917969 209.835938 181.882812 209.917969 181.851562 C 210.015625 181.820312 210.109375 181.785156 210.199219 181.753906 C 210.261719 181.730469 210.316406 181.714844 210.378906 181.695312 L 210.378906 183.933594 C 210.351562 183.941406 210.332031 183.945312 210.308594 183.953125 Z M 210.308594 183.953125 " fill-opacity="1" fill-rule="nonzero"/><path fill="#33b5ff" d="M 209.929688 175.441406 C 209.75 175.492188 209.558594 175.542969 209.351562 175.597656 C 208.941406 175.714844 208.476562 175.84375 207.964844 175.984375 C 205.933594 176.558594 203.222656 177.359375 200.511719 178.167969 C 195.09375 179.808594 189.679688 181.445312 189.679688 181.445312 C 189.679688 181.445312 194.90625 179.277344 200.132812 177.109375 C 202.75 176.03125 205.371094 174.964844 207.351562 174.183594 C 207.851562 173.988281 208.308594 173.8125 208.710938 173.652344 C 208.914062 173.574219 209.105469 173.503906 209.285156 173.4375 C 209.371094 173.402344 209.457031 173.371094 209.539062 173.339844 C 209.636719 173.304688 209.730469 173.273438 209.820312 173.242188 C 209.882812 173.222656 209.9375 173.203125 210 173.183594 L 210 175.421875 C 209.972656 175.429688 209.953125 175.4375 209.929688 175.441406 Z M 209.929688 175.441406 " fill-opacity="1" fill-rule="nonzero"/><path fill="#33b5ff" d="M 209.929688 166.769531 C 209.75 166.816406 209.558594 166.871094 209.351562 166.925781 C 208.941406 167.039062 208.476562 167.167969 207.964844 167.3125 C 205.933594 167.890625 203.222656 168.691406 200.511719 169.5 C 195.09375 171.136719 189.679688 172.773438 189.679688 172.773438 C 189.679688 172.773438 194.90625 170.605469 200.132812 168.4375 C 202.75 167.363281 205.371094 166.292969 207.351562 165.511719 C 207.851562 165.316406 208.308594 165.136719 208.710938 164.980469 C 208.914062 164.902344 209.105469 164.828125 209.285156 164.765625 C 209.371094 164.730469 209.457031 164.699219 209.539062 164.667969 C 209.636719 164.632812 209.730469 164.601562 209.820312 164.570312 C 209.882812 164.546875 209.9375 164.527344 210 164.511719 L 210 166.75 C 209.972656 166.753906 209.953125 166.761719 209.929688 166.769531 Z M 209.929688 166.769531 " fill-opacity="1" fill-rule="nonzero"/><g clip-path="url(#2397ea5101)"><path fill="#33b5ff" d="M 213.15625 156.550781 L 190.113281 161.675781 L 221.742188 147.292969 L 221.371094 205.984375 L 193.136719 223.425781 L 213.226562 202.527344 Z M 213.15625 156.550781 " fill-opacity="1" fill-rule="nonzero"/></g></svg>