<svg xmlns="http://www.w3.org/2000/svg" xmlns:xlink="http://www.w3.org/1999/xlink" width="500" zoomAndPan="magnify" viewBox="0 0 375 374.999991" height="500" preserveAspectRatio="xMidYMid meet" version="1.0"><defs><g/><clipPath id="01a8914f2e"><path d="M 127.152344 124 L 171 124 L 171 187.335938 L 127.152344 187.335938 Z M 127.152344 124 " clip-rule="nonzero"/></clipPath><clipPath id="58af507c4e"><path d="M 153 107.085938 L 185 107.085938 L 185 184 L 153 184 Z M 153 107.085938 " clip-rule="nonzero"/></clipPath><clipPath id="94ce46a928"><path d="M 204 124 L 247.902344 124 L 247.902344 187.335938 L 204 187.335938 Z M 204 124 " clip-rule="nonzero"/></clipPath><clipPath id="4e4f023a22"><path d="M 190 107.085938 L 222 107.085938 L 222 184 L 190 184 Z M 190 107.085938 " clip-rule="nonzero"/></clipPath><clipPath id="00c0a0f024"><path d="M 246.457031 205.511719 L 272.707031 205.511719 L 272.707031 232.511719 L 246.457031 232.511719 Z M 246.457031 205.511719 " clip-rule="nonzero"/></clipPath></defs><path fill="#ffffff" d="M 175.519531 184.792969 L 140.410156 173.226562 L 140.042969 114.535156 L 148.632812 118.496094 L 148.554688 169.769531 Z M 175.519531 184.792969 " fill-opacity="1" fill-rule="nonzero"/><g clip-path="url(#01a8914f2e)"><path fill="#ffffff" d="M 170.167969 187.484375 L 127.484375 187.484375 L 127.15625 124.304688 L 135.40625 125.6875 L 135.140625 179.773438 Z M 170.167969 187.484375 " fill-opacity="1" fill-rule="nonzero"/></g><path fill="#ffffff" d="M 165.078125 160.160156 C 165.257812 160.207031 165.449219 160.261719 165.65625 160.3125 C 166.066406 160.429688 166.53125 160.558594 167.039062 160.699219 C 169.070312 161.277344 171.785156 162.078125 174.496094 162.886719 C 179.914062 164.527344 185.328125 166.164062 185.328125 166.164062 C 185.328125 166.164062 180.101562 163.992188 174.875 161.824219 C 172.257812 160.746094 169.636719 159.679688 167.65625 158.898438 C 167.15625 158.703125 166.699219 158.527344 166.296875 158.367188 C 166.09375 158.289062 165.902344 158.21875 165.722656 158.152344 C 165.636719 158.121094 165.550781 158.085938 165.46875 158.054688 C 165.371094 158.023438 165.277344 157.992188 165.1875 157.957031 C 165.125 157.9375 165.066406 157.921875 165.007812 157.898438 L 165.007812 160.136719 C 165.035156 160.144531 165.054688 160.152344 165.078125 160.160156 Z M 165.078125 160.160156 " fill-opacity="1" fill-rule="nonzero"/><path fill="#ffffff" d="M 165.078125 152.710938 C 165.257812 152.753906 165.449219 152.808594 165.65625 152.863281 C 166.066406 152.980469 166.53125 153.109375 167.039062 153.25 C 169.070312 153.828125 171.785156 154.628906 174.496094 155.4375 C 179.914062 157.074219 185.328125 158.710938 185.328125 158.710938 C 185.328125 158.710938 180.101562 156.542969 174.875 154.375 C 172.257812 153.300781 169.636719 152.230469 167.65625 151.449219 C 167.15625 151.253906 166.699219 151.078125 166.296875 150.917969 C 166.09375 150.839844 165.902344 150.765625 165.722656 150.703125 C 165.636719 150.667969 165.550781 150.632812 165.46875 150.605469 C 165.371094 150.570312 165.277344 150.539062 165.1875 150.507812 C 165.125 150.484375 165.066406 150.464844 165.007812 150.449219 L 165.007812 152.6875 C 165.035156 152.699219 165.054688 152.703125 165.078125 152.710938 Z M 165.078125 152.710938 " fill-opacity="1" fill-rule="nonzero"/><path fill="#ffffff" d="M 164.699219 143.746094 C 164.878906 143.796875 165.070312 143.847656 165.277344 143.902344 C 165.6875 144.019531 166.152344 144.148438 166.660156 144.289062 C 168.695312 144.867188 171.40625 145.667969 174.117188 146.476562 C 179.535156 148.117188 184.949219 149.753906 184.949219 149.753906 C 184.949219 149.753906 179.722656 147.582031 174.496094 145.414062 C 171.878906 144.335938 169.257812 143.269531 167.277344 142.488281 C 166.777344 142.292969 166.320312 142.117188 165.917969 141.957031 C 165.714844 141.878906 165.523438 141.808594 165.34375 141.742188 C 165.257812 141.710938 165.171875 141.675781 165.089844 141.644531 C 164.992188 141.613281 164.898438 141.578125 164.808594 141.546875 C 164.746094 141.527344 164.691406 141.507812 164.628906 141.488281 L 164.628906 143.726562 C 164.65625 143.734375 164.675781 143.738281 164.699219 143.746094 Z M 164.699219 143.746094 " fill-opacity="1" fill-rule="nonzero"/><path fill="#ffffff" d="M 165.078125 135.234375 C 165.257812 135.285156 165.449219 135.335938 165.65625 135.390625 C 166.066406 135.507812 166.53125 135.636719 167.039062 135.777344 C 169.070312 136.351562 171.785156 137.152344 174.496094 137.960938 C 179.914062 139.601562 185.328125 141.238281 185.328125 141.238281 C 185.328125 141.238281 180.101562 139.070312 174.875 136.902344 C 172.257812 135.824219 169.636719 134.757812 167.65625 133.976562 C 167.15625 133.78125 166.699219 133.605469 166.296875 133.449219 C 166.09375 133.367188 165.902344 133.296875 165.722656 133.230469 C 165.636719 133.195312 165.550781 133.164062 165.46875 133.132812 C 165.371094 133.097656 165.277344 133.066406 165.1875 133.035156 C 165.125 133.015625 165.066406 132.996094 165.007812 132.976562 L 165.007812 135.21875 C 165.035156 135.222656 165.054688 135.230469 165.078125 135.234375 Z M 165.078125 135.234375 " fill-opacity="1" fill-rule="nonzero"/><path fill="#ffffff" d="M 165.078125 126.5625 C 165.257812 126.609375 165.449219 126.664062 165.65625 126.71875 C 166.066406 126.832031 166.53125 126.964844 167.039062 127.105469 C 169.070312 127.683594 171.785156 128.484375 174.496094 129.292969 C 179.914062 130.929688 185.328125 132.566406 185.328125 132.566406 C 185.328125 132.566406 180.101562 130.398438 174.875 128.230469 C 172.257812 127.15625 169.636719 126.085938 167.65625 125.304688 C 167.15625 125.109375 166.699219 124.929688 166.296875 124.773438 C 166.09375 124.695312 165.902344 124.621094 165.722656 124.558594 C 165.636719 124.527344 165.550781 124.492188 165.46875 124.460938 C 165.371094 124.429688 165.277344 124.394531 165.1875 124.363281 C 165.125 124.339844 165.066406 124.324219 165.007812 124.304688 L 165.007812 126.542969 C 165.035156 126.550781 165.054688 126.558594 165.078125 126.5625 Z M 165.078125 126.5625 " fill-opacity="1" fill-rule="nonzero"/><g clip-path="url(#58af507c4e)"><path fill="#ffffff" d="M 161.851562 116.34375 L 184.894531 121.46875 L 153.269531 107.085938 L 153.636719 165.777344 L 181.871094 183.21875 L 161.78125 162.320312 Z M 161.851562 116.34375 " fill-opacity="1" fill-rule="nonzero"/></g><path fill="#33b5ff" d="M 199.488281 184.792969 L 234.597656 173.226562 L 234.964844 114.535156 L 226.375 118.496094 L 226.453125 169.769531 Z M 199.488281 184.792969 " fill-opacity="1" fill-rule="nonzero"/><g clip-path="url(#94ce46a928)"><path fill="#33b5ff" d="M 204.84375 187.484375 L 247.523438 187.484375 L 247.851562 124.304688 L 239.601562 125.6875 L 239.863281 179.773438 Z M 204.84375 187.484375 " fill-opacity="1" fill-rule="nonzero"/></g><path fill="#33b5ff" d="M 209.929688 160.160156 C 209.75 160.207031 209.558594 160.261719 209.351562 160.3125 C 208.941406 160.429688 208.476562 160.558594 207.964844 160.699219 C 205.933594 161.277344 203.222656 162.078125 200.511719 162.886719 C 195.09375 164.527344 189.679688 166.164062 189.679688 166.164062 C 189.679688 166.164062 194.90625 163.992188 200.132812 161.824219 C 202.75 160.746094 205.371094 159.679688 207.351562 158.898438 C 207.851562 158.703125 208.308594 158.527344 208.710938 158.367188 C 208.914062 158.289062 209.105469 158.21875 209.285156 158.152344 C 209.371094 158.121094 209.457031 158.085938 209.539062 158.054688 C 209.636719 158.023438 209.730469 157.992188 209.820312 157.957031 C 209.882812 157.9375 209.9375 157.921875 210 157.898438 L 210 160.136719 C 209.972656 160.144531 209.953125 160.152344 209.929688 160.160156 Z M 209.929688 160.160156 " fill-opacity="1" fill-rule="nonzero"/><path fill="#33b5ff" d="M 209.929688 152.710938 C 209.75 152.753906 209.558594 152.808594 209.351562 152.863281 C 208.941406 152.980469 208.476562 153.109375 207.964844 153.25 C 205.933594 153.828125 203.222656 154.628906 200.511719 155.4375 C 195.09375 157.074219 189.679688 158.710938 189.679688 158.710938 C 189.679688 158.710938 194.90625 156.542969 200.132812 154.375 C 202.75 153.300781 205.371094 152.230469 207.351562 151.449219 C 207.851562 151.253906 208.308594 151.078125 208.710938 150.917969 C 208.914062 150.839844 209.105469 150.765625 209.285156 150.703125 C 209.371094 150.667969 209.457031 150.632812 209.539062 150.605469 C 209.636719 150.570312 209.730469 150.539062 209.820312 150.507812 C 209.882812 150.484375 209.9375 150.464844 210 150.449219 L 210 152.6875 C 209.972656 152.699219 209.953125 152.703125 209.929688 152.710938 Z M 209.929688 152.710938 " fill-opacity="1" fill-rule="nonzero"/><path fill="#33b5ff" d="M 210.308594 143.746094 C 210.128906 143.796875 209.9375 143.847656 209.730469 143.902344 C 209.320312 144.019531 208.855469 144.148438 208.34375 144.289062 C 206.3125 144.867188 203.601562 145.667969 200.890625 146.476562 C 195.472656 148.117188 190.058594 149.753906 190.058594 149.753906 C 190.058594 149.753906 195.285156 147.582031 200.511719 145.414062 C 203.128906 144.335938 205.75 143.269531 207.730469 142.488281 C 208.230469 142.292969 208.6875 142.117188 209.089844 141.957031 C 209.292969 141.878906 209.484375 141.808594 209.664062 141.742188 C 209.75 141.710938 209.835938 141.675781 209.917969 141.644531 C 210.015625 141.613281 210.109375 141.578125 210.199219 141.546875 C 210.261719 141.527344 210.316406 141.507812 210.378906 141.488281 L 210.378906 143.726562 C 210.351562 143.734375 210.332031 143.738281 210.308594 143.746094 Z M 210.308594 143.746094 " fill-opacity="1" fill-rule="nonzero"/><path fill="#33b5ff" d="M 209.929688 135.234375 C 209.75 135.285156 209.558594 135.335938 209.351562 135.390625 C 208.941406 135.507812 208.476562 135.636719 207.964844 135.777344 C 205.933594 136.351562 203.222656 137.152344 200.511719 137.960938 C 195.09375 139.601562 189.679688 141.238281 189.679688 141.238281 C 189.679688 141.238281 194.90625 139.070312 200.132812 136.902344 C 202.75 135.824219 205.371094 134.757812 207.351562 133.976562 C 207.851562 133.78125 208.308594 133.605469 208.710938 133.449219 C 208.914062 133.367188 209.105469 133.296875 209.285156 133.230469 C 209.371094 133.195312 209.457031 133.164062 209.539062 133.132812 C 209.636719 133.097656 209.730469 133.066406 209.820312 133.035156 C 209.882812 133.015625 209.9375 132.996094 210 132.976562 L 210 135.21875 C 209.972656 135.222656 209.953125 135.230469 209.929688 135.234375 Z M 209.929688 135.234375 " fill-opacity="1" fill-rule="nonzero"/><path fill="#33b5ff" d="M 209.929688 126.5625 C 209.75 126.609375 209.558594 126.664062 209.351562 126.71875 C 208.941406 126.832031 208.476562 126.964844 207.964844 127.105469 C 205.933594 127.683594 203.222656 128.484375 200.511719 129.292969 C 195.09375 130.929688 189.679688 132.566406 189.679688 132.566406 C 189.679688 132.566406 194.90625 130.398438 200.132812 128.230469 C 202.75 127.15625 205.371094 126.085938 207.351562 125.304688 C 207.851562 125.109375 208.308594 124.929688 208.710938 124.773438 C 208.914062 124.695312 209.105469 124.621094 209.285156 124.558594 C 209.371094 124.527344 209.457031 124.492188 209.539062 124.460938 C 209.636719 124.429688 209.730469 124.394531 209.820312 124.363281 C 209.882812 124.339844 209.9375 124.324219 210 124.304688 L 210 126.542969 C 209.972656 126.550781 209.953125 126.558594 209.929688 126.5625 Z M 209.929688 126.5625 " fill-opacity="1" fill-rule="nonzero"/><g clip-path="url(#4e4f023a22)"><path fill="#33b5ff" d="M 213.15625 116.34375 L 190.113281 121.46875 L 221.742188 107.085938 L 221.371094 165.777344 L 193.136719 183.21875 L 213.226562 162.320312 Z M 213.15625 116.34375 " fill-opacity="1" fill-rule="nonzero"/></g><g clip-path="url(#00c0a0f024)"><path fill="#33b5ff" d="M 262.136719 205.527344 L 262.136719 216.269531 L 272.402344 216.269531 L 272.402344 221.472656 L 262.136719 221.472656 L 262.136719 232.320312 L 256.722656 232.320312 L 256.722656 221.472656 L 246.457031 221.472656 L 246.457031 216.269531 L 256.722656 216.269531 L 256.722656 205.527344 Z M 262.136719 205.527344 " fill-opacity="1" fill-rule="nonzero"/></g><g fill="#33b5ff" fill-opacity="1"><g transform="translate(119.137056, 252.826815)"><g><path d="M 11.515625 -25.34375 C 13.578125 -25.34375 15.273438 -24.992188 16.609375 -24.296875 C 17.941406 -23.597656 18.960938 -22.648438 19.671875 -21.453125 C 20.378906 -20.253906 20.816406 -18.898438 20.984375 -17.390625 L 15.296875 -17.390625 C 15.148438 -18.535156 14.753906 -19.453125 14.109375 -20.140625 C 13.460938 -20.828125 12.539062 -21.171875 11.34375 -21.171875 C 10.457031 -21.171875 9.726562 -20.957031 9.15625 -20.53125 C 8.59375 -20.113281 8.3125 -19.453125 8.3125 -18.546875 C 8.3125 -17.609375 8.6875 -16.851562 9.4375 -16.28125 C 10.195312 -15.71875 11.578125 -15.195312 13.578125 -14.71875 C 16.304688 -14.070312 18.296875 -13.097656 19.546875 -11.796875 C 20.796875 -10.503906 21.421875 -8.875 21.421875 -6.90625 C 21.421875 -5.300781 20.972656 -3.945312 20.078125 -2.84375 C 19.191406 -1.738281 18.03125 -0.90625 16.59375 -0.34375 C 15.15625 0.21875 13.609375 0.5 11.953125 0.5 C 8.898438 0.5 6.429688 -0.148438 4.546875 -1.453125 C 2.671875 -2.765625 1.625 -4.765625 1.40625 -7.453125 L 7.09375 -7.453125 C 7.351562 -6.179688 7.925781 -5.234375 8.8125 -4.609375 C 9.707031 -3.984375 10.71875 -3.671875 11.84375 -3.671875 C 12.875 -3.671875 13.742188 -3.921875 14.453125 -4.421875 C 15.160156 -4.929688 15.515625 -5.601562 15.515625 -6.4375 C 15.515625 -7.300781 15.179688 -8.039062 14.515625 -8.65625 C 13.859375 -9.269531 12.679688 -9.769531 10.984375 -10.15625 C 9.203125 -10.613281 7.671875 -11.140625 6.390625 -11.734375 C 5.109375 -12.335938 4.125 -13.132812 3.4375 -14.125 C 2.75 -15.125 2.40625 -16.414062 2.40625 -18 C 2.40625 -19.5625 2.832031 -20.882812 3.6875 -21.96875 C 4.539062 -23.0625 5.65625 -23.894531 7.03125 -24.46875 C 8.414062 -25.050781 9.910156 -25.34375 11.515625 -25.34375 Z M 11.515625 -25.34375 "/></g></g></g><g fill="#33b5ff" fill-opacity="1"><g transform="translate(142.825099, 252.826815)"><g><path d="M 9.25 -7.34375 L 7.78125 -5.71875 L 7.78125 0 L 2.125 0 L 2.125 -26.453125 L 7.78125 -26.453125 L 7.78125 -10.765625 L 15.046875 -19.1875 L 21.75 -19.1875 L 13.421875 -10.328125 L 21.859375 0 L 14.828125 0 Z M 9.25 -7.34375 "/></g></g></g><g fill="#33b5ff" fill-opacity="1"><g transform="translate(166.117142, 252.826815)"><g><path d="M 12.703125 -19.6875 C 13.015625 -19.6875 13.28125 -19.675781 13.5 -19.65625 C 13.71875 -19.632812 13.929688 -19.597656 14.140625 -19.546875 L 14.140625 -14.96875 C 11.910156 -15.113281 10.289062 -14.671875 9.28125 -13.640625 C 8.28125 -12.609375 7.78125 -10.738281 7.78125 -8.03125 L 7.78125 0 L 2.125 0 L 2.125 -19.1875 L 7.78125 -19.1875 L 7.78125 -15.515625 L 9.21875 -18.1875 C 9.695312 -18.6875 10.257812 -19.0625 10.90625 -19.3125 C 11.550781 -19.5625 12.148438 -19.6875 12.703125 -19.6875 Z M 12.703125 -19.6875 "/></g></g></g><g fill="#ffffff" fill-opacity="1"><g transform="translate(181.961271, 252.826815)"><g><path d="M 4.9375 -26.609375 C 5.84375 -26.609375 6.570312 -26.347656 7.125 -25.828125 C 7.675781 -25.316406 7.953125 -24.628906 7.953125 -23.765625 C 7.953125 -22.867188 7.675781 -22.160156 7.125 -21.640625 C 6.570312 -21.128906 5.84375 -20.875 4.9375 -20.875 C 4.039062 -20.875 3.316406 -21.128906 2.765625 -21.640625 C 2.210938 -22.160156 1.9375 -22.867188 1.9375 -23.765625 C 1.9375 -24.628906 2.210938 -25.316406 2.765625 -25.828125 C 3.316406 -26.347656 4.039062 -26.609375 4.9375 -26.609375 Z M 7.78125 0 L 2.125 0 L 2.125 -19.1875 L 7.78125 -19.1875 Z M 7.78125 0 "/></g></g></g><g fill="#ffffff" fill-opacity="1"><g transform="translate(193.409297, 252.826815)"><g><path d="M 14.140625 -19.6875 C 15.921875 -19.6875 17.441406 -19.269531 18.703125 -18.4375 C 19.960938 -17.613281 20.929688 -16.476562 21.609375 -15.03125 C 22.296875 -13.582031 22.640625 -11.910156 22.640625 -10.015625 C 22.640625 -7.703125 22.21875 -5.765625 21.375 -4.203125 C 20.539062 -2.648438 19.429688 -1.476562 18.046875 -0.6875 C 16.671875 0.101562 15.15625 0.5 13.5 0.5 C 12.707031 0.5 11.882812 0.410156 11.03125 0.234375 C 10.175781 0.0546875 9.507812 -0.1875 9.03125 -0.5 L 7.78125 -2.515625 L 7.78125 7.0625 L 2.125 7.0625 L 2.125 -19.1875 L 7.78125 -19.1875 L 7.78125 -16.3125 L 9.21875 -18.4375 C 9.769531 -18.84375 10.488281 -19.148438 11.375 -19.359375 C 12.257812 -19.578125 13.179688 -19.6875 14.140625 -19.6875 Z M 12.171875 -3.390625 C 13.535156 -3.390625 14.65625 -3.910156 15.53125 -4.953125 C 16.40625 -5.992188 16.84375 -7.554688 16.84375 -9.640625 C 16.84375 -11.535156 16.425781 -13.035156 15.59375 -14.140625 C 14.769531 -15.242188 13.6875 -15.796875 12.34375 -15.796875 C 11.050781 -15.796875 9.96875 -15.351562 9.09375 -14.46875 C 8.21875 -13.582031 7.78125 -12.035156 7.78125 -9.828125 L 7.78125 -8.96875 C 7.78125 -7.59375 7.992188 -6.5 8.421875 -5.6875 C 8.859375 -4.875 9.410156 -4.285156 10.078125 -3.921875 C 10.753906 -3.566406 11.453125 -3.390625 12.171875 -3.390625 Z M 12.171875 -3.390625 "/></g></g></g><g fill="#ffffff" fill-opacity="1"><g transform="translate(218.501342, 252.826815)"><g><path d="M 9.46875 -19.6875 C 11.789062 -19.6875 13.609375 -19.109375 14.921875 -17.953125 C 16.234375 -16.804688 17.007812 -15.359375 17.25 -13.609375 L 11.65625 -13.609375 C 11.320312 -15.265625 10.472656 -16.09375 9.109375 -16.09375 C 8.503906 -16.09375 8.019531 -15.921875 7.65625 -15.578125 C 7.300781 -15.242188 7.125 -14.828125 7.125 -14.328125 C 7.125 -13.679688 7.441406 -13.144531 8.078125 -12.71875 C 8.710938 -12.300781 9.882812 -11.878906 11.59375 -11.453125 C 13.4375 -10.992188 14.910156 -10.3125 16.015625 -9.40625 C 17.117188 -8.507812 17.671875 -7.160156 17.671875 -5.359375 C 17.671875 -4.046875 17.304688 -2.945312 16.578125 -2.0625 C 15.847656 -1.1875 14.867188 -0.539062 13.640625 -0.125 C 12.421875 0.289062 11.054688 0.5 9.546875 0.5 C 7.097656 0.5 5.078125 -0.0234375 3.484375 -1.078125 C 1.898438 -2.128906 0.976562 -3.738281 0.71875 -5.90625 L 6.296875 -5.90625 C 6.492188 -5.019531 6.890625 -4.332031 7.484375 -3.84375 C 8.085938 -3.363281 8.785156 -3.125 9.578125 -3.125 C 10.273438 -3.125 10.859375 -3.273438 11.328125 -3.578125 C 11.796875 -3.878906 12.03125 -4.332031 12.03125 -4.9375 C 12.03125 -5.625 11.6875 -6.179688 11 -6.609375 C 10.3125 -7.046875 9.117188 -7.457031 7.421875 -7.84375 C 5.617188 -8.300781 4.175781 -8.972656 3.09375 -9.859375 C 2.007812 -10.753906 1.46875 -12.015625 1.46875 -13.640625 C 1.46875 -15.515625 2.203125 -16.988281 3.671875 -18.0625 C 5.140625 -19.144531 7.070312 -19.6875 9.46875 -19.6875 Z M 9.46875 -19.6875 "/></g></g></g><g fill="#ffffff" fill-opacity="1"><g transform="translate(238.40938, 252.826815)"><g><path d="M 4.9375 -26.609375 C 5.84375 -26.609375 6.570312 -26.347656 7.125 -25.828125 C 7.675781 -25.316406 7.953125 -24.628906 7.953125 -23.765625 C 7.953125 -22.867188 7.675781 -22.160156 7.125 -21.640625 C 6.570312 -21.128906 5.84375 -20.875 4.9375 -20.875 C 4.039062 -20.875 3.316406 -21.128906 2.765625 -21.640625 C 2.210938 -22.160156 1.9375 -22.867188 1.9375 -23.765625 C 1.9375 -24.628906 2.210938 -25.316406 2.765625 -25.828125 C 3.316406 -26.347656 4.039062 -26.609375 4.9375 -26.609375 Z M 7.78125 0 L 2.125 0 L 2.125 -19.1875 L 7.78125 -19.1875 Z M 7.78125 0 "/></g></g></g></svg>