<svg xmlns="http://www.w3.org/2000/svg" xmlns:xlink="http://www.w3.org/1999/xlink" width="500" zoomAndPan="magnify" viewBox="0 0 375 374.999991" height="500" preserveAspectRatio="xMidYMid meet" version="1.0"><defs><g/><clipPath id="d06729c8a0"><path d="M 246.457031 159.265625 L 272.707031 159.265625 L 272.707031 186.265625 L 246.457031 186.265625 Z M 246.457031 159.265625 " clip-rule="nonzero"/></clipPath></defs><g clip-path="url(#d06729c8a0)"><path fill="#33b5ff" d="M 262.136719 159.285156 L 262.136719 170.027344 L 272.402344 170.027344 L 272.402344 175.230469 L 262.136719 175.230469 L 262.136719 186.074219 L 256.722656 186.074219 L 256.722656 175.230469 L 246.457031 175.230469 L 246.457031 170.027344 L 256.722656 170.027344 L 256.722656 159.285156 Z M 262.136719 159.285156 " fill-opacity="1" fill-rule="nonzero"/></g><g fill="#33b5ff" fill-opacity="1"><g transform="translate(119.137056, 206.582756)"><g><path d="M 11.515625 -25.34375 C 13.578125 -25.34375 15.273438 -24.992188 16.609375 -24.296875 C 17.941406 -23.597656 18.960938 -22.648438 19.671875 -21.453125 C 20.378906 -20.253906 20.816406 -18.898438 20.984375 -17.390625 L 15.296875 -17.390625 C 15.148438 -18.535156 14.753906 -19.453125 14.109375 -20.140625 C 13.460938 -20.828125 12.539062 -21.171875 11.34375 -21.171875 C 10.457031 -21.171875 9.726562 -20.957031 9.15625 -20.53125 C 8.59375 -20.113281 8.3125 -19.453125 8.3125 -18.546875 C 8.3125 -17.609375 8.6875 -16.851562 9.4375 -16.28125 C 10.195312 -15.71875 11.578125 -15.195312 13.578125 -14.71875 C 16.304688 -14.070312 18.296875 -13.097656 19.546875 -11.796875 C 20.796875 -10.503906 21.421875 -8.875 21.421875 -6.90625 C 21.421875 -5.300781 20.972656 -3.945312 20.078125 -2.84375 C 19.191406 -1.738281 18.03125 -0.90625 16.59375 -0.34375 C 15.15625 0.21875 13.609375 0.5 11.953125 0.5 C 8.898438 0.5 6.429688 -0.148438 4.546875 -1.453125 C 2.671875 -2.765625 1.625 -4.765625 1.40625 -7.453125 L 7.09375 -7.453125 C 7.351562 -6.179688 7.925781 -5.234375 8.8125 -4.609375 C 9.707031 -3.984375 10.71875 -3.671875 11.84375 -3.671875 C 12.875 -3.671875 13.742188 -3.921875 14.453125 -4.421875 C 15.160156 -4.929688 15.515625 -5.601562 15.515625 -6.4375 C 15.515625 -7.300781 15.179688 -8.039062 14.515625 -8.65625 C 13.859375 -9.269531 12.679688 -9.769531 10.984375 -10.15625 C 9.203125 -10.613281 7.671875 -11.140625 6.390625 -11.734375 C 5.109375 -12.335938 4.125 -13.132812 3.4375 -14.125 C 2.75 -15.125 2.40625 -16.414062 2.40625 -18 C 2.40625 -19.5625 2.832031 -20.882812 3.6875 -21.96875 C 4.539062 -23.0625 5.65625 -23.894531 7.03125 -24.46875 C 8.414062 -25.050781 9.910156 -25.34375 11.515625 -25.34375 Z M 11.515625 -25.34375 "/></g></g></g><g fill="#33b5ff" fill-opacity="1"><g transform="translate(142.825099, 206.582756)"><g><path d="M 9.25 -7.34375 L 7.78125 -5.71875 L 7.78125 0 L 2.125 0 L 2.125 -26.453125 L 7.78125 -26.453125 L 7.78125 -10.765625 L 15.046875 -19.1875 L 21.75 -19.1875 L 13.421875 -10.328125 L 21.859375 0 L 14.828125 0 Z M 9.25 -7.34375 "/></g></g></g><g fill="#33b5ff" fill-opacity="1"><g transform="translate(166.117142, 206.582756)"><g><path d="M 12.703125 -19.6875 C 13.015625 -19.6875 13.28125 -19.675781 13.5 -19.65625 C 13.71875 -19.632812 13.929688 -19.597656 14.140625 -19.546875 L 14.140625 -14.96875 C 11.910156 -15.113281 10.289062 -14.671875 9.28125 -13.640625 C 8.28125 -12.609375 7.78125 -10.738281 7.78125 -8.03125 L 7.78125 0 L 2.125 0 L 2.125 -19.1875 L 7.78125 -19.1875 L 7.78125 -15.515625 L 9.21875 -18.1875 C 9.695312 -18.6875 10.257812 -19.0625 10.90625 -19.3125 C 11.550781 -19.5625 12.148438 -19.6875 12.703125 -19.6875 Z M 12.703125 -19.6875 "/></g></g></g><g fill="#323232" fill-opacity="1"><g transform="translate(181.961271, 206.582756)"><g><path d="M 4.9375 -26.609375 C 5.84375 -26.609375 6.570312 -26.347656 7.125 -25.828125 C 7.675781 -25.316406 7.953125 -24.628906 7.953125 -23.765625 C 7.953125 -22.867188 7.675781 -22.160156 7.125 -21.640625 C 6.570312 -21.128906 5.84375 -20.875 4.9375 -20.875 C 4.039062 -20.875 3.316406 -21.128906 2.765625 -21.640625 C 2.210938 -22.160156 1.9375 -22.867188 1.9375 -23.765625 C 1.9375 -24.628906 2.210938 -25.316406 2.765625 -25.828125 C 3.316406 -26.347656 4.039062 -26.609375 4.9375 -26.609375 Z M 7.78125 0 L 2.125 0 L 2.125 -19.1875 L 7.78125 -19.1875 Z M 7.78125 0 "/></g></g></g><g fill="#323232" fill-opacity="1"><g transform="translate(193.409297, 206.582756)"><g><path d="M 14.140625 -19.6875 C 15.921875 -19.6875 17.441406 -19.269531 18.703125 -18.4375 C 19.960938 -17.613281 20.929688 -16.476562 21.609375 -15.03125 C 22.296875 -13.582031 22.640625 -11.910156 22.640625 -10.015625 C 22.640625 -7.703125 22.21875 -5.765625 21.375 -4.203125 C 20.539062 -2.648438 19.429688 -1.476562 18.046875 -0.6875 C 16.671875 0.101562 15.15625 0.5 13.5 0.5 C 12.707031 0.5 11.882812 0.410156 11.03125 0.234375 C 10.175781 0.0546875 9.507812 -0.1875 9.03125 -0.5 L 7.78125 -2.515625 L 7.78125 7.0625 L 2.125 7.0625 L 2.125 -19.1875 L 7.78125 -19.1875 L 7.78125 -16.3125 L 9.21875 -18.4375 C 9.769531 -18.84375 10.488281 -19.148438 11.375 -19.359375 C 12.257812 -19.578125 13.179688 -19.6875 14.140625 -19.6875 Z M 12.171875 -3.390625 C 13.535156 -3.390625 14.65625 -3.910156 15.53125 -4.953125 C 16.40625 -5.992188 16.84375 -7.554688 16.84375 -9.640625 C 16.84375 -11.535156 16.425781 -13.035156 15.59375 -14.140625 C 14.769531 -15.242188 13.6875 -15.796875 12.34375 -15.796875 C 11.050781 -15.796875 9.96875 -15.351562 9.09375 -14.46875 C 8.21875 -13.582031 7.78125 -12.035156 7.78125 -9.828125 L 7.78125 -8.96875 C 7.78125 -7.59375 7.992188 -6.5 8.421875 -5.6875 C 8.859375 -4.875 9.410156 -4.285156 10.078125 -3.921875 C 10.753906 -3.566406 11.453125 -3.390625 12.171875 -3.390625 Z M 12.171875 -3.390625 "/></g></g></g><g fill="#323232" fill-opacity="1"><g transform="translate(218.501342, 206.582756)"><g><path d="M 9.46875 -19.6875 C 11.789062 -19.6875 13.609375 -19.109375 14.921875 -17.953125 C 16.234375 -16.804688 17.007812 -15.359375 17.25 -13.609375 L 11.65625 -13.609375 C 11.320312 -15.265625 10.472656 -16.09375 9.109375 -16.09375 C 8.503906 -16.09375 8.019531 -15.921875 7.65625 -15.578125 C 7.300781 -15.242188 7.125 -14.828125 7.125 -14.328125 C 7.125 -13.679688 7.441406 -13.144531 8.078125 -12.71875 C 8.710938 -12.300781 9.882812 -11.878906 11.59375 -11.453125 C 13.4375 -10.992188 14.910156 -10.3125 16.015625 -9.40625 C 17.117188 -8.507812 17.671875 -7.160156 17.671875 -5.359375 C 17.671875 -4.046875 17.304688 -2.945312 16.578125 -2.0625 C 15.847656 -1.1875 14.867188 -0.539062 13.640625 -0.125 C 12.421875 0.289062 11.054688 0.5 9.546875 0.5 C 7.097656 0.5 5.078125 -0.0234375 3.484375 -1.078125 C 1.898438 -2.128906 0.976562 -3.738281 0.71875 -5.90625 L 6.296875 -5.90625 C 6.492188 -5.019531 6.890625 -4.332031 7.484375 -3.84375 C 8.085938 -3.363281 8.785156 -3.125 9.578125 -3.125 C 10.273438 -3.125 10.859375 -3.273438 11.328125 -3.578125 C 11.796875 -3.878906 12.03125 -4.332031 12.03125 -4.9375 C 12.03125 -5.625 11.6875 -6.179688 11 -6.609375 C 10.3125 -7.046875 9.117188 -7.457031 7.421875 -7.84375 C 5.617188 -8.300781 4.175781 -8.972656 3.09375 -9.859375 C 2.007812 -10.753906 1.46875 -12.015625 1.46875 -13.640625 C 1.46875 -15.515625 2.203125 -16.988281 3.671875 -18.0625 C 5.140625 -19.144531 7.070312 -19.6875 9.46875 -19.6875 Z M 9.46875 -19.6875 "/></g></g></g><g fill="#323232" fill-opacity="1"><g transform="translate(238.40938, 206.582756)"><g><path d="M 4.9375 -26.609375 C 5.84375 -26.609375 6.570312 -26.347656 7.125 -25.828125 C 7.675781 -25.316406 7.953125 -24.628906 7.953125 -23.765625 C 7.953125 -22.867188 7.675781 -22.160156 7.125 -21.640625 C 6.570312 -21.128906 5.84375 -20.875 4.9375 -20.875 C 4.039062 -20.875 3.316406 -21.128906 2.765625 -21.640625 C 2.210938 -22.160156 1.9375 -22.867188 1.9375 -23.765625 C 1.9375 -24.628906 2.210938 -25.316406 2.765625 -25.828125 C 3.316406 -26.347656 4.039062 -26.609375 4.9375 -26.609375 Z M 7.78125 0 L 2.125 0 L 2.125 -19.1875 L 7.78125 -19.1875 Z M 7.78125 0 "/></g></g></g></svg>